<?xml version="1.0" standalone="no"?>
<!DOCTYPE svg PUBLIC "-//W3C//DTD SVG 20010904//EN"
 "http://www.w3.org/TR/2001/REC-SVG-20010904/DTD/svg10.dtd">
<svg version="1.0" xmlns="http://www.w3.org/2000/svg"
 width="400.000000pt" height="400.000000pt" viewBox="0 0 400.000000 400.000000"
 preserveAspectRatio="xMidYMid meet">
<metadata>
Created by potrace 1.16, written by Peter Selinger 2001-2019
</metadata>
<g transform="translate(0.000000,400.000000) scale(0.100000,-0.100000)"
fill="#000000" stroke="none">
<path d="M1015 3711 c-95 -28 -241 -109 -320 -178 -78 -68 -211 -287 -254
-419 -45 -137 -54 -220 -48 -416 6 -207 30 -318 101 -459 55 -109 168 -277
233 -346 19 -21 35 -16 28 8 -4 13 -3 19 2 16 6 -4 15 5 21 18 14 30 22 31 43
7 9 -11 25 -25 36 -33 11 -8 29 -30 39 -50 22 -42 114 -179 120 -179 10 0 -27
71 -66 128 -24 36 -38 67 -34 73 5 9 2 10 -9 6 -10 -3 -17 -3 -17 2 0 4 -16
26 -35 48 -19 23 -35 48 -35 56 0 9 -18 33 -41 54 -88 82 -200 290 -238 438
-50 201 -49 328 5 517 46 161 120 305 206 402 20 24 34 47 30 50 -4 4 0 6 8 4
8 -2 14 3 12 10 -1 8 2 11 7 8 5 -3 15 2 22 11 10 12 10 14 2 9 -7 -4 -13 -5
-13 -2 0 7 87 64 139 90 25 13 73 32 106 42 33 10 69 26 81 36 11 10 36 18 55
18 19 0 45 3 59 7 l25 7 -25 7 c-23 6 -22 7 10 9 29 1 32 3 15 10 -36 15 -206
10 -270 -9z"/>
<path d="M2292 3303 c-42 -107 -64 -257 -69 -470 l-5 -203 -30 21 c-39 28 -48
17 -13 -15 16 -15 24 -26 19 -26 -5 0 -3 -4 4 -9 10 -6 6 -15 -15 -39 -15 -16
-29 -35 -31 -41 -4 -18 54 -71 148 -136 111 -77 115 -82 128 -136 12 -46 1
-160 -17 -184 -15 -19 -20 -45 -10 -45 18 0 49 84 49 135 1 63 17 89 45 69 10
-8 30 -14 43 -14 22 0 23 -3 17 -40 -8 -44 9 -56 19 -14 7 25 67 86 83 84 4 0
7 -10 5 -20 -4 -25 15 -26 22 -2 5 14 75 46 83 38 2 -2 -17 -33 -41 -70 -24
-37 -54 -92 -66 -122 -12 -30 -26 -54 -30 -54 -14 0 -57 -330 -46 -349 3 -5
-1 -27 -9 -50 -8 -23 -10 -41 -5 -41 11 0 1 -38 -13 -47 -5 -3 -7 -2 -4 4 3 5
2 31 -2 59 l-7 49 -8 -85 c-4 -47 -10 -94 -14 -105 -5 -17 -7 -16 -13 10 -4
17 -7 64 -8 105 -1 41 -6 95 -12 120 -19 86 -71 239 -85 251 -11 9 -14 9 -10
-2 2 -8 16 -50 30 -94 29 -92 59 -215 53 -221 -2 -3 -21 50 -42 116 -21 66
-40 118 -43 116 -2 -3 10 -47 26 -98 67 -202 78 -293 43 -360 -10 -20 -14 -41
-10 -45 5 -5 -10 -44 -32 -87 -23 -42 -43 -76 -45 -73 -2 2 7 25 22 50 14 26
21 47 16 47 -6 0 -15 -12 -21 -27 -7 -16 -29 -62 -51 -103 -22 -43 -37 -84
-34 -95 3 -11 -5 -43 -17 -70 -62 -140 -161 -423 -184 -525 -24 -110 -24 -217
0 -227 9 -3 19 -2 23 2 4 4 1 10 -5 12 -21 8 -15 119 11 223 34 132 115 350
92 245 -4 -16 -9 -106 -13 -200 -5 -145 -3 -180 12 -235 10 -36 17 -79 17 -96
-2 -28 1 -31 28 -31 24 0 29 4 25 17 -3 9 1 24 8 34 9 13 11 38 5 99 -4 45 -7
133 -7 195 1 62 -1 116 -5 119 -3 4 -6 -11 -7 -33 -1 -45 -16 -103 -18 -69 -1
11 6 92 15 180 22 215 76 395 119 395 7 0 22 14 32 30 9 17 21 30 26 30 4 0 5
5 2 10 -4 6 -11 8 -16 4 -19 -11 39 91 65 115 l26 24 0 -41 c0 -23 5 -42 10
-42 6 0 10 27 10 60 0 33 2 60 5 60 3 0 14 -9 25 -20 11 -11 27 -20 36 -20 10
0 5 9 -15 26 -25 21 -29 29 -21 45 6 10 8 19 4 19 -3 0 -1 6 5 13 6 8 8 17 4
21 -4 3 -8 16 -10 28 -3 17 3 15 34 -15 44 -43 59 -40 18 3 -16 17 -25 30 -19
30 5 0 1 5 -8 11 -13 7 -18 22 -17 52 0 37 1 39 10 18 5 -14 11 -34 13 -45 2
-12 8 -20 14 -19 5 1 18 -7 27 -17 10 -11 28 -20 39 -20 19 0 19 1 -4 13 -14
7 -35 32 -47 57 -23 46 -31 120 -13 120 6 0 10 10 10 22 0 21 0 21 -15 2 -14
-17 -14 -13 -9 51 12 156 25 245 43 296 27 80 74 168 119 225 36 46 48 54 133
84 52 18 120 48 152 66 32 19 66 34 75 34 17 0 19 14 22 245 0 22 -4 121 -9
220 -24 430 -21 413 -83 401 -23 -5 -44 -21 -68 -51 -19 -25 -40 -45 -45 -45
-6 0 -28 -30 -49 -67 -22 -38 -56 -96 -78 -129 -36 -57 -109 -216 -107 -232 1
-4 0 -10 -1 -14 -4 -13 -7 -27 -9 -38 0 -5 -7 -10 -14 -10 -8 0 -28 38 -47 88
-44 117 -184 385 -245 468 -32 43 -76 70 -96 58 -8 -4 -9 -3 -5 4 4 7 3 12 -2
12 -5 0 -14 -12 -20 -27z m88 -237 c16 -50 6 -56 -31 -17 -17 18 -33 31 -35
28 -3 -3 7 -18 22 -33 60 -65 93 -111 109 -154 10 -25 35 -84 58 -132 l40 -88
42 0 c22 0 46 -5 52 -11 8 -8 17 -8 31 0 11 6 43 11 70 11 47 0 50 1 79 48 16
26 40 76 52 112 27 77 122 263 155 305 l24 30 -14 -85 c-7 -46 -12 -102 -10
-125 3 -32 2 -34 -3 -10 -6 25 -8 20 -14 -33 -5 -35 -6 -89 -3 -120 4 -43 3
-51 -4 -32 -7 17 -8 -10 -5 -90 4 -125 10 -150 31 -150 21 0 17 -18 -6 -25
-14 -4 -32 3 -58 23 -20 16 -47 34 -60 41 -12 7 -20 17 -16 23 4 7 3 8 -4 4
-6 -4 -30 -2 -52 4 -53 14 -83 0 -127 -62 -18 -27 -30 -48 -26 -48 3 0 -4 -11
-17 -25 -19 -20 -21 -27 -10 -40 7 -8 19 -15 26 -15 11 0 12 -4 4 -17 -5 -10
-15 -31 -20 -46 -6 -16 -16 -27 -23 -24 -13 4 -11 45 4 64 6 7 6 13 0 17 -8 6
-17 -9 -23 -39 -5 -29 -46 -41 -65 -20 -4 4 -2 5 5 1 7 -4 12 -2 12 5 0 7 3
10 6 6 8 -7 34 17 34 32 0 18 -22 23 -46 10 -21 -11 -27 -10 -45 9 -11 12 -23
22 -28 22 -4 0 -8 7 -8 15 0 8 4 15 9 15 12 0 10 34 -4 49 -9 10 -9 12 -1 7 6
-3 14 -2 18 4 3 5 0 10 -8 10 -18 0 -27 21 -27 60 0 39 -50 80 -97 80 -22 0
-41 7 -49 18 -12 14 -13 14 -8 1 3 -9 -2 -23 -10 -32 -12 -12 -13 -17 -3 -20
7 -4 6 -6 -4 -6 -21 -1 -29 44 -29 180 0 108 21 293 41 364 l11 40 23 -51 c12
-27 28 -67 35 -88z m-80 -496 c3 -1 9 -2 13 -1 5 1 6 -3 3 -8 -4 -5 12 -28 34
-50 22 -22 40 -36 40 -32 0 4 -5 12 -12 19 -25 25 6 11 39 -18 18 -16 38 -30
43 -30 6 0 6 -10 0 -26 -6 -14 -8 -30 -4 -35 3 -5 -2 -9 -12 -9 -11 0 -15 6
-11 19 3 12 -4 28 -19 42 -23 21 -24 21 -25 3 -1 -10 -1 -25 0 -33 2 -14 -12
-8 -41 17 -12 10 -18 11 -18 4 0 -7 -5 -12 -11 -12 -5 0 -8 4 -5 8 2 4 -4 14
-16 21 -16 10 -19 10 -12 -1 4 -7 -8 -1 -27 14 -18 15 -33 32 -31 38 1 6 -2 9
-7 6 -5 -3 -14 1 -21 9 -11 13 -11 20 0 40 11 20 19 23 54 20 22 -2 43 -4 46
-5z m580 -126 c43 -9 20 -23 -40 -25 -25 -1 -58 -5 -75 -10 -32 -9 15 -7 145
7 l64 6 -16 -23 c-13 -21 -24 -24 -72 -24 -62 0 -79 -14 -18 -16 32 -1 34 -2
12 -8 -14 -5 -33 -7 -42 -5 -10 2 -18 -1 -18 -5 0 -4 -18 -13 -39 -20 -22 -6
-52 -18 -67 -26 -16 -8 -30 -13 -32 -11 -9 9 20 86 36 95 15 9 15 12 2 20 -11
8 -8 12 15 21 17 7 39 16 50 20 25 11 53 12 95 4z"/>
<path d="M821 1778 c5 -10 8 -18 5 -18 -2 0 2 -22 8 -48 7 -26 11 -62 9 -79
-3 -17 -1 -33 4 -36 5 -3 7 8 5 25 -8 51 18 29 43 -37 12 -33 47 -114 77 -180
57 -123 128 -304 128 -327 0 -7 11 -57 24 -113 44 -185 56 -243 56 -273 0 -41
49 -194 67 -208 19 -16 123 -224 123 -246 0 -10 5 -18 11 -18 5 0 8 -4 4 -9
-8 -14 13 -55 36 -69 17 -11 21 -9 27 8 8 21 8 21 34 -5 24 -24 57 -27 43 -5
-3 5 0 12 5 15 14 9 4 58 -21 99 -24 41 -65 168 -73 226 -5 41 -4 39 19 -25
14 -38 36 -94 50 -123 14 -29 25 -61 25 -72 0 -11 5 -20 11 -20 8 0 9 13 4 43
-10 56 -10 76 -2 177 4 60 4 73 -3 45 -5 -22 -10 -62 -11 -88 -2 -54 -14 -51
-37 10 -43 114 -83 245 -93 300 -14 80 4 139 68 220 47 60 98 151 90 160 -6 5
-76 -101 -80 -120 -1 -6 -6 -17 -12 -23 -5 -6 -18 -22 -28 -35 -9 -13 -24 -33
-32 -44 -8 -11 3 21 25 70 21 50 40 97 42 105 2 8 10 20 18 27 8 6 12 15 8 18
-4 4 0 14 8 22 8 9 13 22 10 30 -4 8 -3 20 1 26 4 7 8 17 9 22 2 6 6 26 9 45
l7 35 -21 -33 c-12 -18 -19 -37 -16 -42 3 -4 -2 -10 -10 -14 -8 -3 -15 -14
-15 -25 0 -22 -88 -201 -98 -201 -4 0 -8 -9 -9 -21 -1 -11 -8 -27 -14 -36 -12
-13 -14 -13 -21 4 -4 10 -5 2 -2 -19 4 -21 2 -38 -3 -38 -5 0 -10 21 -12 47
-1 26 -5 52 -8 57 -3 6 0 5 8 -2 7 -6 17 -12 23 -12 5 0 -1 9 -14 20 -13 11
-18 20 -12 20 7 0 12 4 12 10 0 5 -7 7 -15 4 -8 -4 -15 -1 -15 5 0 6 6 11 13
11 6 0 4 5 -5 11 -10 5 -18 19 -18 30 0 33 -41 187 -56 206 -11 15 -11 8 1
-42 32 -143 37 -199 19 -221 -14 -18 -15 -18 -8 5 4 16 3 21 -5 17 -6 -4 -11
0 -11 8 0 9 -5 16 -11 16 -6 0 -9 7 -6 15 5 11 1 12 -17 6 -17 -7 -25 -5 -34
10 -7 10 -12 24 -12 30 0 6 -9 18 -20 27 -10 10 -37 58 -58 107 -22 50 -65
140 -95 200 -30 61 -58 125 -62 143 -4 17 -10 32 -15 32 -8 0 -29 58 -49 136
-7 24 -17 41 -25 41 -11 0 -13 -5 -5 -19z"/>
<path d="M2092 1598 c-1 -4 -9 -81 -18 -170 -9 -99 -20 -165 -27 -170 -9 -6
-8 -10 3 -18 10 -6 11 -10 3 -10 -9 0 -11 -10 -6 -30 3 -19 1 -30 -6 -30 -6 0
-11 -7 -11 -15 0 -8 6 -15 13 -15 7 0 8 -3 2 -8 -5 -4 -11 -46 -13 -95 -2 -85
-10 -151 -53 -432 -14 -91 -22 -192 -23 -290 -1 -159 7 -216 27 -196 6 6 20
11 30 11 17 0 18 4 11 33 -4 17 -8 79 -8 137 0 81 5 119 21 165 27 78 97 239
122 281 38 65 142 295 138 307 -2 6 -32 -46 -68 -116 -35 -70 -71 -141 -80
-158 -14 -28 -17 -29 -23 -13 -5 12 -2 23 8 30 18 13 22 29 5 18 -8 -4 -9 0
-4 15 4 12 2 21 -4 21 -7 0 -9 15 -5 43 4 23 3 39 -1 35 -5 -4 -14 -3 -22 4
-11 9 -12 7 -7 -8 5 -18 4 -18 -12 1 l-17 20 8 -20 c13 -37 14 -56 3 -49 -7 5
-9 -8 -5 -42 7 -55 2 -50 -12 13 -5 24 -6 41 -2 39 3 -2 6 52 6 121 1 91 4
126 14 132 9 6 10 10 2 12 -8 3 -7 54 4 192 9 103 14 204 12 225 -2 20 -4 34
-5 30z"/>
<path d="M1503 1555 c0 -8 3 -12 7 -10 4 2 13 -8 19 -22 7 -15 25 -43 42 -64
17 -22 29 -49 29 -67 0 -21 8 -35 26 -47 23 -15 26 -22 21 -54 -3 -20 -8 -45
-11 -56 -4 -11 2 -3 11 18 l18 38 23 -23 c20 -21 22 -21 22 -4 0 11 -8 29 -17
40 -17 20 -17 20 0 7 15 -12 17 -12 11 3 -11 28 14 18 104 -43 48 -32 107 -69
131 -81 44 -22 90 -35 77 -22 -4 4 -11 7 -14 7 -13 1 -97 48 -129 71 -17 13
-36 24 -42 24 -5 0 -14 6 -18 13 -4 7 -34 33 -65 56 -32 24 -58 46 -58 50 0 3
-9 12 -21 19 -12 8 -19 10 -16 5 3 -5 2 -15 -3 -23 -5 -9 -5 -19 2 -27 13 -16
-4 -17 -20 -1 -15 15 -16 32 -2 23 6 -3 10 -1 10 5 0 16 -29 70 -38 70 -5 0
-18 17 -30 39 -25 43 -69 79 -69 56z"/>
</g>
</svg>
